<?xml version="1.0" standalone="no"?>
<!DOCTYPE svg PUBLIC "-//W3C//DTD SVG 1.1//EN" "http://www.w3.org/Graphics/SVG/1.1/DTD/svg11.dtd" >
<svg xmlns="http://www.w3.org/2000/svg">
<metadata>Generated by IcoMoon</metadata>
<defs>
<font id="defined-font" horiz-adv-x="1024">
<font-face units-per-em="1024" ascent="960" descent="-64" />
<missing-glyph horiz-adv-x="1024" />
<glyph unicode="&#x20;" horiz-adv-x="512" d="" />
<glyph unicode="&#xe900;" glyph-name="job" d="M881.465 550.46c0-8.901-5.156-16.116-11.517-16.116h-238.029c-6.361 0-11.517 7.215-11.517 16.116v0c0 8.901 5.156 16.116 11.517 16.116h238.029c6.361 0 11.517-7.215 11.517-16.116v0zM881.465 421.708c0-8.901-7.215-16.116-16.116-16.116h-333.070c-8.901 0-16.116 7.215-16.116 16.116v0c0 8.901 7.215 16.116 16.116 16.116h333.070c8.901 0.001 16.116-7.215 16.116-16.116v0zM881.465 305.646c0-8.901-7.215-16.116-16.116-16.116h-333.070c-8.901 0-16.116 7.215-16.116 16.116v0c0 8.901 7.215 16.116 16.116 16.116h333.070c8.901 0.001 16.116-7.214 16.116-16.116v0zM391.869 413.288c-16.134-30.847-48.436-51.901-85.66-51.901s-69.525 21.055-85.66 51.901c-61.507-31.264-103.651-95.138-103.651-168.861h378.621c0 73.722-42.144 137.597-103.651 168.861zM405.934 499.432c0-55.077-44.649-99.725-99.725-99.725s-99.725 44.649-99.725 99.725c0 55.077 44.649 99.725 99.725 99.725s99.725-44.649 99.725-99.725zM1019.832 674.724c0 0.001 0 0.002 0 0.003s0 0.002 0 0.003v0.809h-0.020c-0.437 54.087-44.186 97.837-98.274 98.274v0.020l-819.119-0.020c-54.087-0.437-97.837-44.186-98.274-98.274h-0.020v-468.633h0.020c0.437-54.087 44.186-97.837 98.274-98.274v-0.020l819.12 0.020c54.087 0.437 97.837 44.186 98.274 98.274h0.020v0.809c0 0.001 0 0.002 0 0.003s0 0.002 0 0.003v467.002zM954.303 250.585c0-0.001 0-0.001 0-0.002v-0.624h-0.017c-0.381-41.719-38.486-75.465-85.593-75.801v-0.015l-713.427 0.015c-47.108 0.337-85.213 34.082-85.593 75.801h-0.018v382.529h0.018c0.38 41.719 38.486 75.465 85.593 75.801v0.015l713.427-0.015c47.108-0.337 85.213-34.082 85.593-75.801h0.017v-0.624c0-0.001 0-0.001 0-0.002s0-0.001 0-0.002v-381.272c0-0.001 0-0.002 0-0.003z" />
<glyph unicode="&#xe901;" glyph-name="department" d="M635.085 759.569c0-41.653-35.081-75.419-78.356-75.419h-89.848c-43.275 0-78.356 33.766-78.356 75.419v0c0 41.653 35.081 75.419 78.356 75.419h89.848c43.275 0 78.356-33.766 78.356-75.419v0zM246.561 117.517c0-41.653-35.081-75.419-78.356-75.419h-89.849c-43.275 0-78.356 33.766-78.356 75.419v0c0 41.653 35.081 75.419 78.356 75.419h89.848c43.275-0.001 78.357-33.766 78.357-75.419v0zM108.776 478.293h29.007v-261.064h-29.007v261.064zM1023.957 117.517c0-41.653-35.081-75.419-78.356-75.419h-89.848c-43.275 0-78.356 33.766-78.356 75.419v0c0 41.653 35.081 75.419 78.356 75.419h89.848c43.275-0.001 78.356-33.766 78.356-75.419v0zM886.173 478.293h29.007v-261.064h-29.007v261.064zM497.302 661.602h29.007v-116.029h-29.007v116.029zM635.085 117.517c0-41.653-35.081-75.419-78.356-75.419h-89.848c-43.275 0-78.356 33.766-78.356 75.419v0c0 41.653 35.081 75.419 78.356 75.419h89.848c43.275-0.001 78.356-33.766 78.356-75.419v0zM504.553 478.293h14.503v-261.064h-14.503v261.064zM497.302 478.293h29.007v-261.064h-29.007v261.064zM105.324 525.993h813.309v-29.007h-813.309v29.007z" />
<glyph unicode="&#xe902;" glyph-name="organization" d="M1023.263 553.144h-1022.569l511.285 349.454zM109.987 508.282h89.385v-446.923h-89.385v446.923zM304.609 508.282h89.385v-446.923h-89.385v446.923zM629.965 508.282h89.385v-446.923h-89.385v446.923zM824.586 508.282h89.385v-446.923h-89.385v446.923zM76.202 40.619h871.555v-89.473h-871.555v89.473zM76.816-67.529h870.327v-24.402h-870.327v24.402zM0.694 636.902h1022.569v-83.758h-1022.569v83.758z" />
<glyph unicode="&#xe903;" glyph-name="info" d="M904.538 65.694v75.271l-61.261 9.105c-2.177 6.501-4.8 12.796-7.824 18.856l36.889 49.767-53.225 53.225-49.767-36.889c-6.060 3.025-12.355 5.648-18.856 7.824l-9.104 61.26h-75.271l-9.105-61.26c-6.501-2.177-12.795-4.8-18.856-7.824l-49.768 36.889-53.224-53.225 36.888-49.767c-3.025-6.061-5.648-12.355-7.824-18.856l-61.26-9.104v-75.271l61.26-9.105c2.177-6.501 4.8-12.796 7.824-18.856l-36.888-49.768 53.224-53.225 49.768 36.889c6.060-3.025 12.355-5.648 18.856-7.824l9.105-61.26h75.271l9.104 61.26c6.501 2.177 12.796 4.8 18.856 7.824l49.767-36.889 53.225 53.225-36.889 49.768c3.025 6.060 5.648 12.355 7.824 18.856l61.261 9.104zM771.676 103.329c0-37.513-30.411-67.924-67.924-67.924s-67.924 30.411-67.924 67.924 30.411 67.924 67.924 67.924c37.513 0 67.924-30.41 67.924-67.924zM331.805 667.027c-64.828-6.199-122.405 41.316-128.603 106.128s41.331 122.379 106.158 128.579c64.828 6.199 122.405-41.316 128.603-106.128s-41.331-122.379-106.158-128.579zM449.194 92.6c0 35.998 8.295 70.056 23.064 100.378-24.152 120.639-14.363 331.631-14.516 387.004-0.029 10.284-3.282 19.074-8.89 26.184-13.133 28.415-41.951 46.81-73.411 43.801-40.39-3.862-249.052-136.697-242.57-204.494 3.732-39.025 75.044-17.771 142.604 8.033-4.864-83.192-29.443-650.055 215.479-492.931-26.306 37.342-41.76 82.877-41.76 132.025z" />
<glyph unicode="&#xe904;" glyph-name="hospital" d="M368.811 496.705h117.116v-117.116h-117.116v117.116zM541.926 496.705h117.116v-117.116h-117.116v117.116zM368.811 337.225h117.116v-117.116h-117.116v117.116zM541.926 337.225h117.116v-117.116h-117.116v117.116zM590.228 601.983v42.231h-54.297v54.297h-42.231v-54.297h-54.297v-42.231h54.297v-54.297h42.231v54.297zM124.721 456.517h56.896v-56.896h-56.896v56.896zM208.819 456.517h56.896v-56.896h-56.896v56.896zM124.721 377.173h56.896v-56.896h-56.896v56.896zM208.819 377.173h56.896v-56.896h-56.896v56.896zM124.721 297.83h56.896v-56.896h-56.896v56.896zM208.819 297.83h56.896v-56.896h-56.896v56.896zM124.721 218.485h56.896v-56.896h-56.896v56.896zM208.819 218.485h56.896v-56.896h-56.896v56.896zM761.081 456.517h56.896v-56.896h-56.896v56.896zM845.179 456.517h56.896v-56.896h-56.896v56.896zM761.081 377.173h56.896v-56.896h-56.896v56.896zM845.179 377.173h56.896v-56.896h-56.896v56.896zM761.081 297.83h56.896v-56.896h-56.896v56.896zM845.179 297.83h56.896v-56.896h-56.896v56.896zM761.081 218.485h56.896v-56.896h-56.896v56.896zM845.179 218.485h56.896v-56.896h-56.896v56.896zM960.405 129.686v387.577h-225.722v234.234h-445.042v-234.233h-223.252v-387.577h-64.971v-76.228h1023.957v76.228h-64.971zM737.885 482.129h187.387v-351.349h-187.387v351.349zM324.776 716.362h374.773v-585.582h-374.773v585.582zM101.524 482.129h187.387v-351.349h-187.387v351.349z" />
<glyph unicode="&#xe905;" glyph-name="user" d="M474.882 361.487c-27.865-53.273-83.65-89.635-147.936-89.635s-120.072 36.362-147.936 89.635c-106.226-53.993-179.009-164.306-179.009-291.627h653.89c0 127.321-72.784 237.634-179.008 291.627zM499.173 510.262c0-95.119-77.109-172.229-172.229-172.229s-172.229 77.109-172.229 172.229c0 95.119 77.109 172.229 172.229 172.229s172.229-77.109 172.229-172.229zM681.167 206.155h342.331c0 109.551-62.625 204.469-154.024 250.926-23.976-45.838-71.975-77.126-127.29-77.126s-103.314 31.287-127.29 77.126c-36.525-18.565-68.447-44.875-93.621-76.759 69.657-40.037 125.793-100.937 159.895-174.167zM890.375 585.091c0-81.844-66.347-148.191-148.191-148.191s-148.191 66.347-148.191 148.191c0 81.844 66.347 148.191 148.191 148.191s148.191-66.347 148.191-148.191z" />
<glyph unicode="&#xe906;" glyph-name="system" d="M906.227 887.933h-788.495c-62.148 0-112.53-48.423-112.53-108.156v-543.855c0-59.732 50.381-108.156 112.53-108.156h788.495c62.148 0 112.53 48.423 112.53 108.156v543.855c0.001 59.733-50.381 108.156-112.53 108.156zM932.228 300.414c0-45.567-41.779-82.505-93.316-82.505h-653.865c-51.537 0-93.316 36.939-93.316 82.505v414.873c0 45.567 41.779 82.505 93.316 82.505h653.865c51.537 0 93.316-36.939 93.316-82.505v-414.873zM291.122 163.652h441.716v-144.793h-441.716v144.793zM901.36-13.416c0-35.263-28.587-63.85-63.85-63.85h-651.060c-35.263 0-63.85 28.587-63.85 63.85v0c0 35.263 28.587 63.85 63.85 63.85h651.060c35.263 0 63.85-28.587 63.85-63.85v0zM796.845 734.988h-569.73c-44.906 0-81.309-28.938-81.309-64.634v-325.009c0-35.696 36.403-64.634 81.309-64.634h569.73c44.906 0 81.309 28.938 81.309 64.634v325.009c0 35.697-36.403 64.634-81.309 64.634z" />
<glyph unicode="&#xe907;" glyph-name="dictionary" d="M958.643 742.201v-595.865h-349.234l-37.803-22.79h-119.252l-37.802 22.79h-349.235v595.865h-53.248v-653.73h402.483l37.802-22.79h119.252l37.803 22.79h402.483v653.73zM91.323 163.566c0 1.896 1.072 3.753 3.11 5.56h-3.11v-5.56zM511.238 163.566v5.56h-3.109c2.036-1.806 3.109-3.663 3.109-5.56zM301.28 744.987c-115.957 0-209.957-14.461-209.957-32.302v-543.559h3.11c17.131 15.19 103.217 26.741 206.848 26.741s189.716-11.551 206.848-26.741h3.109v543.559c0.001 17.839-94.001 32.302-209.956 32.302zM472.112 217.74c0 14.515-76.484 26.282-170.832 26.282s-170.832-11.767-170.832-26.282v446.791c0 14.516 76.484 26.282 170.832 26.282s170.832-11.767 170.832-26.282v-446.791zM931.152 163.566v5.56h-3.109c2.037-1.806 3.109-3.663 3.109-5.56zM511.238 163.566c0 1.896 1.072 3.753 3.11 5.56h-3.11v-5.56zM721.194 744.987c-115.956 0-209.957-14.461-209.957-32.302v-543.559h3.11c17.131 15.19 103.217 26.741 206.848 26.741s189.716-11.551 206.848-26.741h3.109v543.559c0.001 17.839-94 32.302-209.956 32.302zM866.549 314.936h-290.71v32.302h290.71v-32.302zM866.549 401.613h-290.71v32.302h290.71v-32.302zM866.549 488.291h-290.71v32.301h290.71v-32.301zM866.549 574.969h-290.71v32.302h290.71v-32.302zM160.595 607.27h290.71v-32.301h-290.71v32.301zM160.595 520.593h290.71v-32.301h-290.71v32.301zM160.595 433.915h290.71v-32.302h-290.71v32.302zM160.595 347.237h290.71v-32.302h-290.71v32.302z" />
<glyph unicode="&#xe908;" glyph-name="reservation" d="M797.902 759.111h-48.173v-19.633c0-23.601-16.637-42.734-37.16-42.734s-37.16 19.133-37.16 42.734v19.633h-461.78v-19.633c0-23.601-16.637-42.734-37.16-42.734s-37.16 19.133-37.16 42.734v19.633h-48.173c-42.9 0-77.677-38.827-77.677-86.724v-527.728c0-47.896 34.777-86.724 77.677-86.724h535.547c-24.424 25.442-42.861 56.668-53.073 91.416h-104.316v110.033h100.279c10.908 50.755 39.088 95.085 78.091 126.549v51.82h110.033v-4.47c9.763 1.306 19.723 1.993 29.844 1.993 31.269 0 61.029-6.448 88.038-18.068v255.177c0.001 47.898-34.777 86.726-77.676 86.726zM222.586 149.35h-110.033v110.033h110.033v-110.033zM222.586 327.72h-110.033v110.033h110.033v-110.033zM222.586 506.091h-110.033v110.033h110.033v-110.033zM400.956 149.35h-110.033v110.033h110.033v-110.033zM400.956 327.72h-110.033v110.033h110.033v-110.033zM400.956 506.091h-110.033v110.033h110.033v-110.033zM579.326 327.72h-110.033v110.033h110.033v-110.033zM579.326 506.091h-110.033v110.033h110.033v-110.033zM757.696 506.091h-110.033v110.033h110.033v-110.033zM176.467 720.813c13.876 0 25.125 12.937 25.125 28.894v42.714c0 15.957-11.249 28.894-25.125 28.894s-25.125-12.937-25.125-28.894v-42.714c0-15.957 11.249-28.894 25.125-28.894zM712.568 720.813c13.876 0 25.125 12.937 25.125 28.894v42.714c0 15.957-11.249 28.894-25.125 28.894s-25.125-12.937-25.125-28.894v-42.714c0-15.957 11.249-28.894 25.125-28.894zM925.195 387.723c-4.212 3.309-8.546 6.471-12.994 9.476-1.483 1.002-2.978 1.986-4.486 2.952-3.016 1.933-6.080 3.796-9.193 5.586-6.225 3.58-12.639 6.867-19.224 9.844-3.292 1.489-6.627 2.899-10.003 4.23-1.687 0.665-3.385 1.311-5.093 1.936-5.123 1.876-10.333 3.568-15.623 5.070-1.764 0.501-3.536 0.98-5.317 1.439-5.343 1.374-10.763 2.556-16.254 3.538-12.811 2.288-26 3.482-39.468 3.482s-26.658-1.194-39.468-3.482c-3.66-0.654-7.289-1.397-10.885-2.227-10.788-2.491-21.276-5.763-31.401-9.756-3.375-1.331-6.71-2.741-10.003-4.23-1.646-0.744-3.282-1.508-4.907-2.291-3.249-1.566-6.454-3.208-9.614-4.924-1.58-0.859-3.148-1.735-4.704-2.63-3.113-1.79-6.178-3.652-9.193-5.586s-5.981-3.938-8.896-6.010-5.777-4.213-8.583-6.419c-9.828-7.723-18.989-16.254-27.387-25.493-2.4-2.64-4.736-5.338-7.008-8.090-10.224-12.388-19.135-25.9-26.522-40.321-0.821-1.602-1.623-3.216-2.406-4.84-7.828-16.246-13.744-33.586-17.457-51.729-2.97-14.515-4.53-29.543-4.53-44.934 0-42.329 11.796-81.903 32.279-115.614 0.931-1.532 1.88-3.053 2.847-4.561 4.833-7.539 10.108-14.768 15.788-21.65 2.272-2.753 4.609-5.45 7.008-8.090 3.599-3.959 7.338-7.789 11.21-11.48 5.163-4.922 10.562-9.599 16.176-14.012 2.808-2.206 5.67-4.347 8.583-6.419 1.457-1.036 2.927-2.055 4.409-3.057 2.966-2.004 5.981-3.938 9.046-5.799s6.178-3.652 9.337-5.368c4.739-2.575 9.581-4.981 14.52-7.214 3.292-1.489 6.627-2.899 10.003-4.23 10.126-3.993 20.613-7.265 31.401-9.756 3.596-0.83 7.226-1.573 10.885-2.227 12.811-2.288 26-3.482 39.468-3.482s26.658 1.194 39.468 3.482c5.49 0.98 10.91 2.162 16.254 3.538 1.781 0.458 3.553 0.938 5.317 1.439 5.29 1.502 10.501 3.196 15.623 5.070 1.707 0.625 3.406 1.271 5.093 1.936 3.375 1.331 6.71 2.741 10.003 4.23 6.585 2.977 12.999 6.265 19.224 9.844 1.556 0.895 3.101 1.808 4.634 2.739 3.065 1.862 6.080 3.796 9.046 5.799 4.448 3.005 8.782 6.166 12.994 9.476 21.059 16.549 39.064 36.808 53.030 59.794 20.483 33.712 32.279 73.285 32.279 115.614 0.002 71.19-33.362 134.588-85.306 175.409zM787.54 54.685c-87.057 0-157.631 70.573-157.631 157.631s70.573 157.631 157.631 157.631 157.631-70.573 157.631-157.631c0-87.058-70.573-157.631-157.631-157.631zM787.444 345.129c-11.040 0-19.989-8.842-19.989-19.751v-138.588c0-10.908 8.95-19.751 19.989-19.751s19.989 8.842 19.989 19.751v138.588c0.001 10.907-8.949 19.751-19.989 19.751zM777.446 204.692l-59.803-34.527c-9.561-5.52-12.836-17.745-7.317-27.306s17.745-12.836 27.307-7.317l59.804 34.527c9.561 5.52 12.836 17.745 7.317 27.306-5.522 9.561-17.747 12.836-27.308 7.317z" />
<glyph unicode="&#xe909;" glyph-name="company" d="M473.008 753.166h143.868v-143.868h-143.868v143.868zM685.666 753.166h143.868v-143.868h-143.868v143.868zM473.008 560.302h143.868v-143.868h-143.868v143.868zM685.666 560.302h143.868v-143.868h-143.868v143.868zM473.008 364.393h143.868v-143.868h-143.868v143.868zM685.666 364.393h143.868v-143.868h-143.868v143.868zM173.16 471.717h69.892v-69.892h-69.892v69.892zM276.469 471.717h69.892v-69.892h-69.892v69.892zM173.16 374.249h69.892v-69.892h-69.892v69.892zM276.469 374.249h69.892v-69.892h-69.892v69.892zM173.16 276.781h69.892v-69.892h-69.892v69.892zM276.469 276.781h69.892v-69.892h-69.892v69.892zM173.16 179.314h69.892v-69.892h-69.892v69.892zM276.469 179.314h69.892v-69.892h-69.892v69.892zM922.454 70.231v763.847h-546.701v-287.738h-274.249v-476.11h-74.297v-93.641h969.544v93.641h-74.297zM418.914 790.917h460.379v-719.344h-460.379v719.344zM144.666 503.179h230.19v-431.606h-230.19v431.606z" />
<glyph unicode="&#xe90a;" glyph-name="product" d="M1004.682 729.887l1.698 0.742-473.045 141.245-514.731-141.245v-518.137l492.258-296.532v-0.94l0.781 0.47 0.781-0.47v0.94l492.258 296.532v517.395zM510.62 549.961l-179.894 74.893 422.149 149.728 162.217-50.251-404.472-174.369zM550.197 837.365l128.046-39.665-417.209-143.833-146.351 60.928 435.514 122.57zM471.142-4.331l-405.116 236.385v424.717l405.116-179.201v-481.902zM956.431 237.1l-409.922-241.329v486.97l409.922 184.113v-429.754z" />
<glyph unicode="&#xe90b;" glyph-name="medicine" d="M753.81 913.555h-483.664c-33.194 0-60.103-32.363-60.103-72.286v-72.286h603.868v72.286c0 39.922-26.909 72.286-60.102 72.286zM138.546 555.418v-574.278c0-46.406 37.53-84.026 83.825-84.026h579.214c46.295 0 83.825 37.62 83.825 84.026v574.278h-746.864zM696.435 157.095h-115.286v-115.285h-138.342v115.285h-115.285v138.342h115.285v115.285h138.342v-115.285h115.286v-138.342zM885.411 579.409h-746.864l78.493 155.677h589.878z" />
<glyph unicode="&#xe90c;" glyph-name="log" d="M764.971 127.595l-106.954-106.953h106.954zM764.971 876.509h-669.809v-855.867h357.373l12.906 51.623 299.53 299.53v504.714zM162.123 132.277c-20.551 0-37.212 16.66-37.212 37.212s16.66 37.212 37.212 37.212c20.551 0 37.212-16.66 37.212-37.212s-16.659-37.212-37.212-37.212zM162.123 318.336c-20.551 0-37.212 16.66-37.212 37.212s16.66 37.212 37.212 37.212c20.551 0 37.212-16.66 37.212-37.212s-16.659-37.212-37.212-37.212zM162.123 504.393c-20.551 0-37.212 16.66-37.212 37.212s16.66 37.212 37.212 37.212c20.551 0 37.212-16.66 37.212-37.212s-16.659-37.212-37.212-37.212zM162.123 690.452c-20.551 0-37.212 16.66-37.212 37.212s16.66 37.212 37.212 37.212c20.551 0 37.212-16.66 37.212-37.212s-16.659-37.212-37.212-37.212zM171.953 727.663c0-19.574-15.868-35.442-35.442-35.442h-82.7c-19.574 0-35.442 15.868-35.442 35.442v0c0 19.574 15.868 35.442 35.442 35.442h82.698c19.575 0 35.443-15.868 35.443-35.442v0zM171.953 541.605c0-19.574-15.868-35.442-35.442-35.442h-82.7c-19.574 0-35.442 15.868-35.442 35.442v0c0 19.574 15.868 35.442 35.442 35.442h82.698c19.575 0 35.443-15.867 35.443-35.442v0zM171.953 355.547c0-19.574-15.868-35.442-35.442-35.442h-82.7c-19.574 0-35.442 15.868-35.442 35.442v0c0 19.574 15.868 35.442 35.442 35.442h82.698c19.575 0 35.443-15.868 35.443-35.442v0zM171.953 169.489c0-19.574-15.868-35.442-35.442-35.442h-82.7c-19.574 0-35.442 15.868-35.442 35.442v0c0 19.574 15.868 35.442 35.442 35.442h82.698c19.575 0 35.443-15.867 35.443-35.442v0zM490.284 69.743l351.663 351.663 94.725-94.725-351.663-351.663-94.725 94.725zM851.542 430.991l7.118 7.118 94.725-94.725-7.118-7.118-94.725 94.725zM999.796 417.758l-66.763 66.763c-7.722 7.722-20.241 7.722-27.963 0l-37.847-37.847 94.725-94.725 37.847 37.847c7.722 7.722 7.722 20.241 0 27.963zM497.784-53.753l11.928 2.981-45.209 45.209-2.982-11.928zM575.735-34.266l-94.725 94.725-16.506-66.023 45.209-45.209zM457.994-31.6l-8.56-34.241 34.241 8.561z" />
<glyph unicode="&#xe90d;" glyph-name="arrow" d="M241.078 422.47l266.678 275.106 275.106-266.678-266.678-275.106-275.106 266.678z" />
<glyph unicode="&#xe90e;" glyph-name="beian" d="M601.997 310.656l-91.953 91.953 341.374 341.374 91.953-91.953-341.374-341.374zM952.686 661.343l-91.953 91.953 6.91 6.91 91.953-91.953-6.91-6.91zM1004.637 740.451l-64.809 64.809c-7.496 7.496-19.65 7.496-27.145 0l-36.741-36.741 91.954-91.954 36.741 36.741c7.497 7.497 7.497 19.65 0 27.145zM528.892 285.628l64.091 16.023-91.953 91.954-18.918-75.669 35.202-35.202zM470.377 271l33.239 8.309-24.929 24.93zM781.050 198.026c0-45.396-37.718-82.196-84.245-82.196h-394.069c-46.527 0-84.245 36.8-84.245 82.196v334.573c0 45.396 37.718 82.196 84.245 82.196h197.035v73.377h-248.434c-58.665 0-106.222-47.624-106.222-106.372v-432.976c0-58.747 47.557-106.371 106.222-106.371h496.868c58.664 0 106.222 47.624 106.222 106.371v219.366h-73.377v-170.165zM87.074 254.524v399.79c0 45.396 37.718 82.196 84.245 82.196h324.809v73.377h-376.208c-58.665 0-106.222-47.624-106.222-106.371v-498.195c0-58.747 47.557-106.371 106.222-106.371h6.368v86.12c-23.561 14.572-39.213 40.22-39.213 69.452z" />
<glyph unicode="&#xe90f;" glyph-name="merchandise" d="M736.951 487.768v220.093c0 119.89-100.815 217.080-225.178 217.080s-225.178-97.19-225.178-217.080v-220.231c-25.726-9.079-44.167-33.592-44.167-62.426 0-36.558 29.636-66.195 66.194-66.195s66.195 29.636 66.195 66.195c0 30.031-20.006 55.376-47.412 63.475v195.132c0 106.823 82.544 193.42 184.367 193.42s184.367-86.597 184.367-193.42v-195.248c-27.197-8.227-47.003-33.475-47.003-63.358 0-36.558 29.636-66.195 66.195-66.195s66.195 29.636 66.195 66.195c0 28.984-18.637 53.601-44.575 62.563zM350.074 425.205c0-22.892-18.558-41.45-41.45-41.45s-41.45 18.558-41.45 41.45c0 22.892 18.558 41.45 41.45 41.45s41.45-18.558 41.45-41.45zM715.332 383.755c-22.892 0-41.45 18.558-41.45 41.45s18.558 41.45 41.45 41.45c22.892 0 41.45-18.558 41.45-41.45s-18.558-41.45-41.45-41.45zM360.073 658.418h305.091v-64.368h-305.091v64.368zM822.552 658.418h-55.958v-64.368h9.189c54.416 0 98.53-44.416 98.53-99.203v-369.036h-724.669v369.035c0 54.789 44.114 99.203 98.53 99.203h10.468v64.368h-57.238c-64.064 0-115.998-52.85-115.998-118.043v-493.938c0-65.194 51.934-118.043 115.998-118.043h621.147c64.064 0 115.998 52.85 115.998 118.043v493.939c0 65.193-51.934 118.043-115.998 118.043zM775.783-7.238h-527.608c-52.168 0-94.84 40.828-98.279 92.475h724.167c-3.44-51.647-46.111-92.475-98.279-92.475z" />
<glyph unicode="&#xe910;" glyph-name="based" d="M429.33 523.22c256.094 0 434.695 64.895 434.695 144.911v86.925c0 80.010-178.602 144.906-434.695 144.906-256.079 0-405.699-64.896-405.699-144.906v-86.925c0-80.017 149.62-144.911 405.699-144.911v0zM376.728 176.499c-175.872 6.514-278.592 46.671-332.6 100.396-13.776-13.744-20.496-28.329-20.496-43.474v-115.93c0-80.015 149.62-144.855 405.699-144.855 25.634 0 50.584 0.809 75.101 2.064-65.798 47.305-112.737 118.886-127.705 201.8zM371.439 234.705c0.313 76.613 27.576 146.869 72.905 201.681-5.512-0.019-10.816-0.086-16.465-0.086-207.629 0-324.682 42.636-383.752 101.423-13.776-13.76-20.496-28.339-20.496-43.491v-115.92c0-73.72 127.36-134.525 347.807-143.608v0zM702.22 104.257c-35.015-35.015-89.203-37.599-121.031-5.771s-29.244 86.015 5.771 121.031l73.695 73.695-11.291 11.291-82.221-82.221c-37.062-37.062-36.25-97.963 1.813-136.027s98.965-38.875 136.027-1.813l82.221 82.221-11.291 11.291-73.694-73.696zM731.416 386.553l-82.221-82.221 137.84-137.84 82.221 82.221c37.062 37.062 36.25 97.963-1.813 136.027s-98.965 38.875-136.027 1.813zM833.598 274.054l-15.368-15.368-30.736 30.736-30.736-30.736-15.368 15.368 30.736 30.736-30.736 30.736 15.368 15.368 30.736-30.736 30.736 30.736 15.368-15.368-30.736-30.736 30.736-30.736zM718.201 532.054c-163.784 0-296.557-132.773-296.557-296.557s132.773-296.557 296.557-296.557 296.557 132.773 296.557 296.557-132.773 296.557-296.557 296.557zM718.201-13.545c-137.542 0-249.042 111.499-249.042 249.042s111.499 249.042 249.042 249.042 249.042-111.499 249.042-249.042-111.5-249.042-249.042-249.042z" />
<glyph unicode="&#xe911;" glyph-name="settlement" d="M687.383 353.407c-1.464 0.179-2.952 0.282-4.466 0.282v0.202h-136.894v28.395h136.894v0.202c20.118 0 36.428 16.309 36.428 36.429s-16.309 36.428-36.428 36.428v0.202h-111.549l129.876 228.146c0.094 0.161 0.195 0.314 0.288 0.477 10.676 18.752 4.13 42.609-14.623 53.286-18.752 10.676-42.609 4.13-53.286-14.623-0.092-0.162-0.173-0.327-0.263-0.49l-0.012 0.007-125.87-221.081-125.883 221.074c-0.090 0.163-0.171 0.328-0.263 0.49-10.676 18.752-34.534 25.299-53.286 14.623s-25.299-34.534-14.623-53.286c0.092-0.162 0.193-0.316 0.288-0.476l-0.012-0.007 129.888-228.14h-102.549v-0.202c-20.118 0-36.428-16.309-36.428-36.428s16.309-36.429 36.428-36.429v-0.202h131.725v-28.395h-131.725v-0.202c-1.513 0-3.001-0.103-4.466-0.282-18.010-2.203-31.962-17.54-31.962-36.146 0-20.119 16.309-36.429 36.428-36.429v-0.202h131.725v-133.447h0.202c0-20.118 16.309-36.428 36.428-36.428s36.428 16.309 36.428 36.428h0.202v133.448h136.894v0.202c20.118 0 36.428 16.309 36.428 36.429 0.001 18.605-13.951 33.942-31.961 36.145zM1010.507 324.822c0.007 0.033 0.014 0.065 0.021 0.098h-0.024c-0.5 28.353-23.625 51.186-52.097 51.186s-51.596-22.833-52.098-51.186h-0.17c-45.18-175.535-204.524-305.238-394.162-305.238-159.43 0-297.438 91.68-364.209 225.189l80.63-30.819c25.763-9.847 54.392 2.434 63.946 27.431 9.554 24.996-3.586 53.243-29.348 63.089l-178.263 68.137c-6.105 2.334-12.371 3.411-18.506 3.384-0.194 0.002-0.386 0.014-0.58 0.014-28.472 0-51.596-22.833-52.098-51.186h-0.123c0.035-0.171 0.075-0.34 0.109-0.511-0.001-0.142-0.010-0.281-0.010-0.424h0.101c47.5-231.742 252.562-406.051 498.35-406.051s450.85 174.309 498.349 406.050h0.201c-0.001 0.28-0.017 0.557-0.021 0.836zM1010.527 528.413c-0.017 0.088-0.038 0.174-0.056 0.262 0.031 0.737 0.056 1.475 0.056 2.219h-0.532c-48.092 230.967-252.777 404.504-498.017 404.504s-449.924-173.536-498.018-404.504h-0.433c0-0.606 0.026-1.205 0.046-1.806-0.046-0.225-0.099-0.448-0.144-0.674h0.162c1.296-27.633 24.104-49.641 52.058-49.641s50.763 22.007 52.058 49.641h0.109c45.18 175.535 204.524 305.238 394.162 305.238 160.313 0 298.97-92.695 365.316-227.408l-67.761 25.9c-24.573 9.392-51.88-2.322-60.992-26.163s3.42-50.783 27.992-60.174l153.681-58.74c6.261-4.036 13.437-6.764 21.154-7.807 23.229-6.261 47.664 5.426 56.186 27.721 2.497 6.534 3.36 13.3 2.803 19.874 0.040 0.519 0.084 1.036 0.108 1.558h0.062z" />
<glyph unicode="&#xe912;" glyph-name="OA" d="M906.229 909.267h-788.496c-62.148 0-112.53-48.423-112.53-108.156v-543.857c0-59.732 50.381-108.155 112.53-108.155h173.39v-77.334h-104.673c-35.263 0-63.85-28.587-63.85-63.85s28.587-63.85 63.85-63.85h651.061c35.263 0 63.85 28.587 63.85 63.85s-28.587 63.85-63.85 63.85h-104.672v77.334h173.39c62.148 0 112.53 48.423 112.53 108.155v543.857c0 59.732-50.381 108.156-112.53 108.156zM932.23 321.746c0-45.567-41.78-82.505-93.316-82.505h-653.866c-51.538 0-93.316 36.939-93.316 82.505v414.874c0 45.567 41.78 82.505 93.316 82.505h653.866c51.537 0 93.316-36.939 93.316-82.505v-414.874zM327.689 716.228c-98.47 0-178.295-85.232-178.295-190.372s79.825-190.372 178.295-190.372 178.295 85.232 178.295 190.372-79.825 190.372-178.295 190.372zM327.689 398.753c-65.743 0-119.039 56.906-119.039 127.103s53.296 127.103 119.039 127.103 119.039-56.906 119.039-127.103-53.295-127.103-119.039-127.103zM797.375 335.484h66.954l-157.791 396.311h-49.192l-157.791-396.311h66.954l41.83 117.905h147.206l41.831-117.905zM635.868 530.986l46.073 129.866 46.073-129.866h-92.147z" />
<glyph unicode="&#xe913;" glyph-name="transaction" d="M982.555 655.897c-1.061 0-2.104-0.441-3.128-1.218-5.152-1.125-10.35-2.249-16.020-3.495-12.79-2.799-23.367-5.119-46.741-10.233-30.774-6.762-46.383-10.173-64.461-14.108-25.431-5.524-48.622 0.234-68.404 17.169-16.847 14.432-48.030 43.471-77.924 68.747-0.706 0.62-0.706 0.62-1.44 1.238-18.724 15.844-27.57 23.34-38.214 32.362-25.835 21.9-50.205 24.194-77.137 6.588-0.882-0.585-0.882-0.585-1.407-0.882-0.088-0.088-0.088-0.088-0.174-0.122-0.095-0.053-0.095-0.053-0.236-0.141-16.229-9.142-29.105-16.403-58.205-32.804-0.532-0.323-0.532-0.323-1.090-0.62-88.071-49.618-127.395-71.815-176.403-99.535-7.632-4.319-13.384-10.621-16.981-17.871-5.948-9.299-9.41-20.341-9.41-32.198 0-33.056 26.797-59.853 59.853-59.853 7.894 0 15.424 1.543 22.324 4.32 0.902 0.265 1.782 0.577 2.615 0.996 4.964 2.503 8.994 4.614 17.842 9.258 0.35 0.209 0.35 0.209 0.706 0.383 7.461 3.943 11.255 5.908 15.696 8.176 8.815 4.493 22.822 11.612 38.668 19.847l0.35 0.176c40.126 20.81 43.459 20.784 66.475 31.482 30.6 14.196 58.659-6.595 83.324-31.079 26.866-26.69 49.27-48.826 96.508-95.504 1.735-1.676 1.735-1.676 3.438-3.384 49.088-48.503 72.34-71.52 100.294-99.266 15.112-15.024 31.75-21.079 50.676-18.254 18.435 2.731 44.567 40.267 73.020 45.617l9.109 1.702c6.297 1.181 11.102 2.093 15.226 2.86 0.414-0.124 0.831-0.191 1.25-0.191 13.025 0 23.584 60.406 23.584 134.92-0.002 74.512-10.562 134.918-23.586 134.918zM685.088 447.353l-11.114 11.108c-26.22 26.253-40.86 40.86-56.966 56.966-19.518 19.525-37.038 22.754-61.758 11.439-7.878-3.586-14.344-6.586-28.25-13.020l-1.764-0.827c-31.13-14.406-46.181-21.282-64.347-29.16-14.815-6.439-28.574-10.846-42.036-13.080-46.592-7.582-98.21 26.307-115.46 74.278-18.349 50.972 0.497 104.648 47.472 135.254 19.282 12.548 35.827 22.512 70.019 42.5 7.785 4.556 15.899 9.172 25.835 14.668 2.294 1.264 8.612 4.765 15.314 8.436-31.158 19.317-64.165 22.404-100.294 9.265-42.684-15.435-84.484-37.272-133.66-68.437-26.044-16.544-53.528-22.189-80.278-14.545-25.016 7.172-44.77 13.724-88.596 28.863-0.121 0.026-0.121 0.026-0.209 0.060-7.024 2.435-12.286 4.258-17.022 5.88v-0.283c-0.19 0.030-0.381 0.048-0.572 0.048-13.025 0-23.584-69.949-23.584-156.234 0-86.286 10.558-156.234 23.584-156.234 0.488 0 0.971 0.111 1.452 0.304 8.336-2.917 16.693-5.822 30.465-10.607 0.296 0.651 0.616 1.308 0.063-0.002 0.004 0.007 0.007 0.012 0.012 0.020 16.842 34.486 44.205 57.436 82.023 66.423 60.578 14.464 118.52-13.517 139.008-70.726-0.176 0.532 0.584-0.229 0.53-0.202 30.391-12.73 51.584-34.744 63.459-65.638 0.060-0.176 0.882-1.090 0.416-0.882 32.1-13.524 53.965-37.186 65.638-70.463-0.060 0.148 0.56-0.558 0-0.323 49.21-20.137 76.66-65.55 71.958-118.876l0.121-0.116c9.197-10.226 14.109-15.372 19.902-20.432 12.286-10.663 31.070-8.403 40.859 4.945 7.934 10.874 7.2 25.715-2.030 35.799-8.174 8.936-15.314 16.43-30.015 31.603-0.97 0.996-0.97 0.996-1.972 2.025-8.080 8.348-12.432 12.851-17.284 17.964-3.653 3.878-5.991 6.589-7.899 9.532-0.375 0.358-0.722 0.743-1.068 1.129-4.307 3.788-7.039 9.324-7.039 15.511 0 11.415 9.254 20.669 20.669 20.669 6.172 0 11.694-2.719 15.482-7.008 0.771-0.69 1.508-1.416 2.169-2.213 3.244-2.379 6.317-5.191 10.259-9.139 29.841-30.129 45.536-46.061 63.293-64.253 9.109-9.412 21.219-12.084 32.362-7.292 10.992 4.73 17.372 14.963 17.048 27.718-0.202 7.347-3.35 13.698-10.314 20.932-1.117 1.177-1.117 1.177-2.234 2.32-0.356 0.35-0.356 0.35-0.706 0.734-26.132 27.31-38.008 39.864-52.472 55.56-0.882 0.942-0.882 0.942-1.997 2.146-3.037 3.267-7.285 8.073-7.285 8.073s-8.699 9.828-8.699 16.755c0 11.332 9.186 20.518 20.518 20.518 8.614 0 21.365-12.984 22.451-14.040 27.894-27.106 51.206-49.976 73.342-72.079 11.316-11.376 24.422-14.29 35.973-8.673 18.523 8.968 21.665 32.45 5.618 49.148-2.792 2.914-2.792 2.914-5.618 5.847-0.436 0.444-0.436 0.444-0.847 0.887-25.074 26.099-36.54 38.209-50.238 53.319-1.781 1.94-11.815 15.946-11.815 22.058 0 11.415 9.254 20.669 20.669 20.669 4.417 0 8.501-1.397 11.859-3.757 2.751-1.818 5.386-4.243 7.889-7.131 1.561-1.824 1.796-2.085 1.938-2.234 14.727-14.022 26.75-25.87 51.912-50.884 1.003-0.97 1.003-0.97 1.972-1.944 2.88-2.88 2.88-2.88 5.759-5.725 13.645-13.524 31.487-14.117 43.066-2.241 11.404 11.7 10.73 29.778-2.174 42.657-32.371 32.303-61.033 60.932-114.763 114.669zM245.519 386.787c0-26.075-21.138-47.213-47.213-47.213s-47.213 21.138-47.213 47.213c0 26.075 21.138 47.213 47.213 47.213s47.213-21.138 47.213-47.213zM316.994 307.992c0-26.075-21.138-47.213-47.213-47.213s-47.213 21.138-47.213 47.213c0 26.075 21.138 47.213 47.213 47.213s47.213-21.138 47.213-47.213zM395.788 224.081c0-26.075-21.138-47.213-47.213-47.213s-47.213 21.138-47.213 47.213c0 26.075 21.138 47.213 47.213 47.213s47.213-21.138 47.213-47.213zM473.56 143.255c0-26.075-21.138-47.213-47.213-47.213s-47.213 21.138-47.213 47.213c0 26.075 21.138 47.213 47.213 47.213s47.213-21.138 47.213-47.213z" />
<glyph unicode="&#xe914;" glyph-name="supervision" d="M323.976 495.399h100.229v-288.642h-100.229v288.642zM160.986 361.353h100.229v-154.596h-100.229v154.596zM812.949 781.78h100.229v-575.022h-100.229v575.022zM486.967 618.196h100.229v-411.439h-100.229v411.439zM649.958 687.781h100.229v-481.023h-100.229v481.023zM969.065 158.127v0.449h-870.213v580.142h-0.448c0 23.783-19.279 43.062-43.062 43.062s-43.062-19.279-43.062-43.062h-0.449v-667.164l957.234 0.449c23.783 0 43.062 19.279 43.062 43.062s-19.28 43.062-43.062 43.062zM161.013 474.108l214.703 214.703 26.838-26.838-214.703-214.703-26.838 26.838zM440.388 657.466l214.703 214.703 26.838-26.838-214.703-214.703-26.838 26.838zM374.629 688.646l101.405-27.791-8.304-30.299-101.405 27.791 8.304 30.299zM583.334 843.316h69.744v-69.744l24.677 3.382 6.763 97.802-97.802-6.763z" />
</font>
</defs>
</svg>
